<?xml version="1.0" encoding="UTF-8"?>
<svg version="1.1" xmlns="http://www.w3.org/2000/svg" width="32" height="32">
<path d="M0 0 C4.83858548 2.32968931 7.67031069 5.16141452 10 10 C10.7971639 14.99447589 10.57907893 18.79729761 8.375 23.375 C5.13226355 26.95907713 2.53524104 29.59535241 -2.3984375 30.3828125 C-8.08222994 30.63883919 -11.64938655 29.93626932 -16 26 C-19.93626932 21.64938655 -20.63883919 18.08222994 -20.3828125 12.3984375 C-19.59535241 7.46475896 -16.95907713 4.86773645 -13.375 1.625 C-8.79729761 -0.57907893 -4.99447589 -0.7971639 0 0 Z M-13 5 C-13.7425 5.53625 -14.485 6.0725 -15.25 6.625 C-17.86035584 10.16762578 -18.20251513 13.65371369 -18 18 C-16.9529689 20.85688329 -16.9529689 20.85688329 -15 23 C-14.46375 23.7425 -13.9275 24.485 -13.375 25.25 C-9.83237422 27.86035584 -6.34628631 28.20251513 -2 28 C0.85688329 26.9529689 0.85688329 26.9529689 3 25 C3.7425 24.46375 4.485 23.9275 5.25 23.375 C7.86035584 19.83237422 8.20251513 16.34628631 8 12 C6.9529689 9.14311671 6.9529689 9.14311671 5 7 C4.46375 6.2575 3.9275 5.515 3.375 4.75 C-1.78570174 0.94737767 -8.03947034 0.88984685 -13 5 Z " fill="#000000" transform="translate(21,1)"/>
<path d="M0 0 C0.99 0.33 1.98 0.66 3 1 C3.33 2.98 3.66 4.96 4 7 C4.66 7 5.32 7 6 7 C6.33 5.02 6.66 3.04 7 1 C7.99 0.67 8.98 0.34 10 0 C9.71640113 1.4391134 9.42278601 2.87625518 9.125 4.3125 C8.96257813 5.11300781 8.80015625 5.91351563 8.6328125 6.73828125 C8 9 8 9 6 12 C3 11 3 11 2.05078125 9.2578125 C1.80714844 8.55398437 1.56351563 7.85015625 1.3125 7.125 C1.06113281 6.42632812 0.80976563 5.72765625 0.55078125 5.0078125 C0 3 0 3 0 0 Z " fill="#000000" transform="translate(11,10)"/>
</svg>
